# xmcd
#
# Track frame offsets: 
#        150
#        10613
#        28555
#        43355
#        63375
#        89597
#        95790
#        116138
#        142116
#        163661
#        180188
#        197414
#        206555
#        224644
#        248519
#        267300
#
# Disc length: 3703 seconds
#
# Revision: 0
# Processed by: cddbd v1.5.2PL0 Copyright (c) Steve Scherf et al.
# Submitted via: ExactAudioCopy v0.99pb4
#
DISCID=e90e7510
DTITLE=Emmanuel - D'Illusions Of Grandeur
DYEAR=2006
DGENRE=R&B
TTITLE0=Krs1 - My Thing!! (Album Version)
TTITLE1=Nate James - Pretend (Album Version)
TTITLE2=Celetia Martin - Getaway (Album Version)
TTITLE3=Daniel DeBourg and Dyanna Fearon - Bubblebath (Album Version)
TTITLE4=Belle - Damelo (Album Version)
TTITLE5=Back To Mars (Interlude)
TTITLE6=Braintax - Let's Go Away (Album Version)
TTITLE7=Daniel Debourg - Quicksand (Album Version)
TTITLE8=Michelle Escoffery - Morning Blues (Album Version)
TTITLE9=Mystro - Heat (Album Version)
TTITLE10=Terri Walker - Flirtin' (Album Version)
TTITLE11=Spacebar (Interlude)
TTITLE12=Belle - Right Here (Album Version)
TTITLE13=Sammy Jay - Sisters Prayer (For Carla and Jessica)
TTITLE14=Sandra Escoffery - Proof (Album Version)
TTITLE15=Still Working (Album Version)
EXTD=
EXTT0=
EXTT1=
EXTT2=
EXTT3=
EXTT4=
EXTT5=
EXTT6=
EXTT7=
EXTT8=
EXTT9=
EXTT10=
EXTT11=
EXTT12=
EXTT13=
EXTT14=
EXTT15=
PLAYORDER=
